<svg xmlns="http://www.w3.org/2000/svg" viewBox="0 0 128 128" role="img" aria-label="LM shield favicon">
  <defs>
    <linearGradient id="bg" x1="0" y1="0" x2="1" y2="1">
      <stop offset="0%" stop-color="#10233f"/>
      <stop offset="100%" stop-color="#1c3f6e"/>
    </linearGradient>
  </defs>
  <rect x="6" y="6" width="116" height="116" rx="24" fill="#eef2f7"/>
  <path d="M64 18
           C82 18 96 22 104 27
           V58
           C104 80 88 99 64 110
           C40 99 24 80 24 58
           V27
           C32 22 46 18 64 18 Z"
        fill="url(#bg)"/>
  <path d="M28 45 H16" stroke="#8fb8ff" stroke-width="4" stroke-linecap="round"/>
  <circle cx="13" cy="45" r="4" fill="#8fb8ff"/>
  <path d="M34 38 H22" stroke="#8fb8ff" stroke-width="4" stroke-linecap="round"/>
  <circle cx="19" cy="38" r="4" fill="#8fb8ff"/>
  <path d="M94 84 H108" stroke="#8fb8ff" stroke-width="4" stroke-linecap="round"/>
  <circle cx="112" cy="84" r="4" fill="#8fb8ff"/>
  <path d="M89 92 H101" stroke="#8fb8ff" stroke-width="4" stroke-linecap="round"/>
  <circle cx="105" cy="92" r="4" fill="#8fb8ff"/>
  <text x="64" y="75"
        text-anchor="middle"
        font-family="Arial, Helvetica, sans-serif"
        font-size="40"
        font-weight="700"
        letter-spacing="1"
        fill="#ffffff">LM</text>
</svg>
